<svg xmlns="http://www.w3.org/2000/svg" viewBox="0 0 100 100">
  <defs>
    <linearGradient id="g" x1="0%" y1="0%" x2="100%" y2="100%">
      <stop offset="0%" stop-color="#a78bfa"/>
      <stop offset="100%" stop-color="#60a5fa"/>
    </linearGradient>
  </defs>
  <!-- Brain shape - simplified -->
  <circle cx="50" cy="50" r="44" fill="url(#g)" opacity="0.15"/>
  <g fill="none" stroke="url(#g)" stroke-width="3.5" stroke-linecap="round" stroke-linejoin="round">
    <!-- Left hemisphere -->
    <path d="M50 18 C36 18, 18 28, 18 46 C18 58, 26 68, 38 74 C42 76, 46 78, 50 82"/>
    <path d="M50 18 C44 24, 38 30, 36 40"/>
    <path d="M36 40 C34 48, 30 52, 24 56"/>
    <path d="M36 40 C38 50, 38 60, 42 68"/>
    <!-- Right hemisphere -->
    <path d="M50 18 C64 18, 82 28, 82 46 C82 58, 74 68, 62 74 C58 76, 54 78, 50 82"/>
    <path d="M50 18 C56 24, 62 30, 64 40"/>
    <path d="M64 40 C66 48, 70 52, 76 56"/>
    <path d="M64 40 C62 50, 62 60, 58 68"/>
    <!-- Center line -->
    <path d="M50 18 L50 82" stroke-dasharray="4,4" opacity="0.4"/>
  </g>
  <!-- Sparkle dots -->
  <circle cx="28" cy="34" r="2.5" fill="#a78bfa" opacity="0.7"/>
  <circle cx="72" cy="34" r="2.5" fill="#60a5fa" opacity="0.7"/>
  <circle cx="50" cy="50" r="2" fill="#818cf8" opacity="0.5"/>
</svg>
